HIERARCHY
ROOT Hips
{
	OFFSET 0.000000 0.000000 0.000000
	CHANNELS 6 Xposition Yposition Zposition Zrotation Yrotation Xrotation 
	JOINT LHipJoint
	{
		OFFSET 0.000000 0.000000 0.000000
		CHANNELS 3 Zrotation Yrotation Xrotation
		JOINT LeftUpLeg
		{
			OFFSET 8.178360 -10.767780 5.035740
			CHANNELS 3 Zrotation Yrotation Xrotation
			JOINT LeftLeg
			{
				OFFSET 14.688660 -40.356780 0.000000
				CHANNELS 3 Zrotation Yrotation Xrotation
				JOINT LeftFoot
				{
					OFFSET 15.373200 -42.237540 0.000000
					CHANNELS 3 Zrotation Yrotation Xrotation
					JOINT LeftToeBase
					{
						OFFSET 0.945840 -2.598660 13.935300
						CHANNELS 3 Zrotation Yrotation Xrotation
						End Site
						{
							OFFSET 0.000000 0.000000 0.000000
						}
					}
				}
			}
		}
	}
	JOINT RHipJoint
	{
		OFFSET 0.000000 0.000000 0.000000
		CHANNELS 3 Zrotation Yrotation Xrotation
		JOINT RightUpLeg
		{
			OFFSET -7.833120 -10.767780 5.035740
			CHANNELS 3 Zrotation Yrotation Xrotation
			JOINT RightLeg
			{
				OFFSET -15.255180 -41.913300 0.000000
				CHANNELS 3 Zrotation Yrotation Xrotation
				JOINT RightFoot
				{
					OFFSET -15.409560 -42.337380 0.000000
					CHANNELS 3 Zrotation Yrotation Xrotation
					JOINT RightToeBase
					{
						OFFSET -0.988380 -2.715540 14.178900
						CHANNELS 3 Zrotation Yrotation Xrotation
						End Site
						{
							OFFSET 0.000000 0.000000 0.000000
						}
					}
				}
			}
		}
	}
	JOINT LowerBack
	{
		OFFSET 0.000000 0.000000 0.000000
		CHANNELS 3 Zrotation Yrotation Xrotation
		JOINT Spine
		{
			OFFSET 0.169620 12.213540 -1.160280
			CHANNELS 3 Zrotation Yrotation Xrotation
			JOINT Spine1
			{
				OFFSET 0.340320 12.293100 -0.256500
				CHANNELS 3 Zrotation Yrotation Xrotation
				JOINT Neck
				{
					OFFSET 0.000000 0.000000 0.000000
					CHANNELS 3 Zrotation Yrotation Xrotation
					JOINT Neck1
					{
						OFFSET -0.325020 10.477440 1.032120
						CHANNELS 3 Zrotation Yrotation Xrotation
						JOINT Head
						{
							OFFSET 0.624420 10.568160 -0.743820
							CHANNELS 3 Zrotation Yrotation Xrotation
							End Site
							{
								OFFSET 0.000000 0.000000 0.000000
							}
						}
					}
				}
				JOINT LeftShoulder
				{
					OFFSET 0.000000 0.000000 0.000000
					CHANNELS 3 Zrotation Yrotation Xrotation
					JOINT LeftArm
					{
						OFFSET 20.174460 7.205340 -1.867260
						CHANNELS 3 Zrotation Yrotation Xrotation
						JOINT LeftForeArm
						{
							OFFSET 29.898000 -0.000000 -0.000000
							CHANNELS 3 Zrotation Yrotation Xrotation
							JOINT LeftHand
							{
								OFFSET 20.901360 -0.000000 -0.000000
								CHANNELS 3 Zrotation Yrotation Xrotation
								JOINT LeftFingerBase
								{
									OFFSET 0.000000 0.000000 0.000000
									CHANNELS 3 Zrotation Yrotation Xrotation
									JOINT LeftHandIndex1
									{
										OFFSET 4.291560 -0.000000 -0.000000
										CHANNELS 3 Zrotation Yrotation Xrotation
										End Site
										{
											OFFSET 0.000000 0.000000 0.000000
										}
									}
								}
								JOINT LThumb
								{
									OFFSET 0.000000 0.000000 0.000000
									CHANNELS 3 Zrotation Yrotation Xrotation
									End Site
									{
										OFFSET 0.000000 0.000000 0.000000
									}
								}
							}
						}
					}
				}
				JOINT RightShoulder
				{
					OFFSET 0.000000 0.000000 0.000000
					CHANNELS 3 Zrotation Yrotation Xrotation
					JOINT RightArm
					{
						OFFSET -18.819600 8.244300 -2.427900
						CHANNELS 3 Zrotation Yrotation Xrotation
						JOINT RightForeArm
						{
							OFFSET -31.451400 -0.000000 -0.000000
							CHANNELS 3 Zrotation Yrotation Xrotation
							JOINT RightHand
							{
								OFFSET -20.665020 -0.000000 -0.000000
								CHANNELS 3 Zrotation Yrotation Xrotation
								JOINT RightFingerBase
								{
									OFFSET 0.000000 0.000000 0.000000
									CHANNELS 3 Zrotation Yrotation Xrotation
									JOINT RightHandIndex1
									{
										OFFSET -3.735180 -0.000000 -0.000000
										CHANNELS 3 Zrotation Yrotation Xrotation
										End Site
										{
											OFFSET 0.000000 0.000000 0.000000
										}
									}
								}
								JOINT RThumb
								{
									OFFSET 0.000000 0.000000 0.000000
									CHANNELS 3 Zrotation Yrotation Xrotation
									End Site
									{
										OFFSET 0.000000 0.000000 0.000000
									}
								}
							}
						}
					}
				}
			}
		}
	}
}
MOTION
Frames:	12
Frame Time:	0.0333333
6.582324 106.497078 -211.541100 0.783599 -1.706965 6.653863 0.981177 2.026333 1.518193 -21.465431 -8.745249 -13.551124 1.426727 8.965665 27.597267 -0.563020 4.641103 -7.470922 0.009700 0.636200 1.748200 -3.342292 -2.856677 1.116197 23.780852 11.251861 -11.982112 -2.474089 -9.308267 29.074363 1.024378 -7.412496 -10.077591 -0.000700 -0.176400 0.484600 -3.724227 -3.088813 0.182967 2.882208 -5.001636 -3.633915 10.107543 -1.441196 -6.045136 -12.921477 0.401548 -4.127818 4.335330 1.904382 12.863121 4.359700 0.077600 6.722300 -7.436656 3.916614 -2.466439 -90.833534 8.655767 8.547549 10.851069 -20.231397 -2.182633 -1.021083 -3.488388 8.403144 15.710064 25.689097 8.134900 -7.125000 0.000000 0.000000 -16.866000 59.536200 -6.092700 6.089317 -2.597525 -2.370395 77.054573 -5.655650 26.187247 -12.773404 19.365072 -2.899916 0.970036 0.281152 8.850192 -13.079748 2.534603 -0.520600 7.125000 0.000000 0.000000 9.678300 -27.782700 4.105500 
6.506712 106.492200 -211.553298 0.841287 -1.627518 6.640874 0.950300 2.030963 1.545255 -21.435490 -8.999294 -13.491361 1.423268 8.959974 27.579156 -0.592690 4.745952 -7.434648 0.017300 0.850300 2.337100 -3.369410 -2.867888 1.135799 23.780424 11.028030 -12.169566 -2.510249 -9.365877 29.271840 0.946076 -7.092959 -10.146745 -0.006000 -0.500200 1.374300 -4.209370 -3.525593 0.646234 3.144270 -5.656245 -3.807876 11.088802 -1.647121 -6.563935 -13.400820 0.852651 -3.565793 4.255293 2.523286 13.027563 4.412500 0.320400 6.605800 -7.381381 3.968466 -2.484917 -91.669024 9.196802 7.024513 10.874966 -20.273059 -2.199467 -1.038971 -3.461188 8.549950 15.740584 25.376429 8.072600 -7.125000 0.000000 0.000000 -16.592000 59.222400 -5.865100 6.058394 -2.600337 -2.405851 76.290182 -6.325015 28.341202 -13.073015 19.977750 -3.074505 1.066848 -0.555582 8.141216 -14.372712 11.125400 -3.160600 7.125000 0.000000 0.000000 8.150600 -18.147400 5.260100 
6.390864 106.485492 -211.475856 0.864681 -1.844842 6.704240 1.015981 2.042603 1.542144 -21.514354 -8.669423 -13.793838 1.423298 8.962296 27.571984 -0.652515 4.935473 -7.189567 0.015500 0.804500 2.210900 -3.306839 -2.843204 1.155851 23.728556 11.308200 -12.176944 -2.516366 -9.380830 29.308856 0.974910 -7.232765 -10.208211 -0.002500 -0.324200 0.890900 -3.203766 -2.953604 0.395339 2.620292 -4.784310 -3.925830 9.190946 -1.258801 -7.405103 -13.079754 0.507431 -1.380888 4.754072 1.722892 12.551872 4.576900 -0.002400 6.051500 -7.452635 4.059046 -2.559460 -90.020222 10.464317 8.993399 10.823119 -20.283199 -2.204594 -1.015490 -3.420376 8.176895 15.802931 24.839345 7.959800 -7.125000 0.000000 0.000000 -16.136100 58.674700 -5.485600 5.865233 -2.604289 -2.372490 77.887931 -7.708936 26.251579 -13.122474 20.137186 -3.128572 0.930097 -0.836964 8.593171 -13.157276 13.958118 -3.650600 7.125000 0.000000 0.000000 9.037900 -15.063400 6.460700 
6.266472 106.453782 -211.364274 0.821828 -1.825882 6.900417 1.054307 2.020188 1.455656 -21.403337 -8.792138 -13.659173 1.409182 8.950429 27.523074 -0.604407 4.817429 -7.540632 0.008000 0.577500 1.587000 -3.286747 -2.818929 1.079913 23.811571 11.336647 -12.262431 -2.529572 -9.430275 29.414117 0.951133 -7.153967 -10.268354 -0.004400 -0.430300 1.182300 -3.113965 -2.093813 -0.125443 2.262927 -3.544234 -3.294600 8.102801 -0.904512 -5.410468 -11.685025 -0.563831 -4.501930 4.662790 0.427631 12.777761 4.242800 -0.511800 6.919500 -7.517360 3.836736 -2.397388 -88.779131 7.457992 11.250710 10.549597 -19.741074 -2.062743 -1.015490 -3.412912 8.716514 15.425900 25.061804 7.806200 -7.125000 0.000000 0.000000 -16.712600 58.794100 -5.736700 5.944655 -2.597924 -2.340608 79.338837 -5.543809 23.535016 -13.220985 20.072689 -3.092400 1.128920 -0.596853 8.408399 -15.249018 11.377789 -3.442100 7.125000 0.000000 0.000000 7.488500 -17.802000 4.882500 
6.175008 106.406832 -211.295976 1.013837 -1.687028 6.940549 1.101479 2.019150 1.417085 -21.634892 -8.916707 -13.518681 1.401516 8.934130 27.481530 -0.613674 4.854103 -7.542479 0.012500 0.721200 1.982100 -3.240742 -2.805686 1.045369 23.594385 11.012576 -12.389722 -2.552233 -9.481537 29.550403 0.905468 -6.989262 -10.385632 -0.004400 -0.430200 1.182200 -2.770397 -1.544965 -0.101366 1.863660 -2.737687 -3.023254 6.847519 -0.624266 -4.813203 -10.680718 -1.302336 -5.596759 4.523255 -0.630612 12.873217 3.958400 -0.948200 7.302700 -7.553196 3.719512 -2.371212 -87.639508 6.514422 13.398112 10.623009 -19.853682 -2.089651 -0.998453 -3.447930 8.569740 15.438400 25.531943 7.929900 -7.125000 0.000000 0.000000 -17.049200 59.276400 -6.054800 5.927492 -2.584001 -2.302026 80.667955 -4.637276 21.498148 -13.227023 19.986063 -3.066786 1.143842 -0.599338 9.084852 -15.618027 11.104133 -3.442900 7.125000 0.000000 0.000000 7.216400 -18.071500 4.659100 
6.008544 106.426956 -211.209396 1.165189 -1.448726 7.107328 0.986004 2.008571 1.490324 -21.510078 -9.225889 -13.656709 1.402459 8.942092 27.492328 -0.594379 4.755601 -7.426446 0.014000 0.764200 2.100200 -3.343531 -2.843629 1.111854 23.674479 11.173141 -12.470996 -2.540453 -9.444232 29.467571 0.988397 -7.374476 -10.527503 -0.001600 -0.256600 0.705000 -4.257201 -3.196333 0.358468 2.849399 -5.159408 -3.558082 10.299150 -1.521989 -5.878528 -12.922273 0.511410 -4.058130 4.253371 2.050719 13.215909 4.336300 0.119800 6.819200 -7.398058 3.935824 -2.465851 -90.803717 8.745505 8.117253 10.950409 -20.428072 -2.222817 -1.012003 -3.532382 8.739365 15.574549 26.302116 8.208400 -7.125000 0.000000 0.000000 -17.515900 60.128700 -6.585300 6.014705 -2.628849 -2.380669 77.411330 -5.958401 27.423152 -13.130682 19.985439 -3.060303 1.206461 -0.544687 8.720570 -16.008496 10.753575 -3.413900 7.125000 0.000000 0.000000 6.906400 -18.463800 4.395600 
5.865252 106.422684 -211.117320 0.855058 -1.688293 7.157919 1.019331 2.015066 1.465457 -21.162237 -9.574743 -13.511666 1.423065 8.984846 27.612777 -0.729264 5.342380 -7.812646 0.012900 0.734400 2.018200 -3.328400 -2.829274 1.093991 24.073437 11.321761 -12.404566 -2.539885 -9.447808 29.476654 0.964136 -7.257385 -10.464172 -0.004100 -0.412000 1.132200 -3.574753 -2.615244 0.271427 2.586902 -4.304511 -3.387274 9.225131 -1.197149 -5.639106 -12.170196 -0.017868 -4.315774 4.280749 1.246033 13.321762 4.193700 -0.215100 7.003700 -7.468566 3.883378 -2.415504 -89.805057 8.135576 9.855488 10.544966 -19.782168 -2.118434 -1.443856 -2.956565 6.716516 19.436436 19.313241 8.152400 -7.125000 0.000000 0.000000 -8.775900 53.578400 -1.862400 6.009174 -2.636954 -2.369059 78.379914 -5.731715 25.323668 -13.089218 19.922197 -3.052191 1.087847 -0.649198 9.031910 -14.882832 11.751953 -3.473400 7.125000 0.000000 0.000000 7.762700 -17.398100 5.134000 
5.682936 106.427562 -211.026468 0.912325 -1.629927 7.202095 1.055041 2.024478 1.472948 -21.166140 -9.483662 -13.735596 1.433661 9.006719 27.665137 -0.765008 5.445279 -7.616961 0.012300 0.716200 1.968300 -3.293243 -2.816730 1.114064 24.112135 11.524186 -12.267883 -2.519822 -9.405996 29.354668 1.044190 -7.594274 -10.448048 -0.002900 -0.349900 0.961500 -2.987472 -2.557077 0.121590 2.348673 -4.181494 -3.524467 8.301534 -1.135289 -6.247927 -12.291189 0.096432 -2.389574 4.606575 1.185182 12.947168 4.383000 -0.227900 6.445600 -7.456422 3.964604 -2.488355 -88.972826 9.062247 9.022255 11.033363 -20.620898 -2.251628 -0.780322 -3.630450 13.170368 11.550198 28.551031 6.232400 -7.125000 0.000000 0.000000 -24.247400 61.204300 -9.897300 5.843523 -2.635736 -2.340857 78.953914 -7.016065 25.150282 -13.237632 20.197666 -3.120223 1.169555 -0.680647 8.949651 -15.790400 12.140373 -3.819400 7.125000 0.000000 0.000000 7.075400 -16.910800 4.747900 
5.500008 106.409880 -210.972198 0.935770 -1.522942 7.388850 0.999240 2.018999 1.501395 -20.975582 -9.571551 -13.750428 1.426397 8.998306 27.637759 -0.687066 5.168426 -7.743077 0.013400 0.746400 2.051200 -3.344348 -2.832843 1.136292 24.235291 11.576886 -12.406968 -2.510931 -9.391493 29.311697 1.044447 -7.610683 -10.516992 -0.004500 -0.431600 1.186000 -3.745436 -3.164658 0.459308 2.804506 -5.097293 -3.698928 9.985170 -1.441058 -6.577095 -13.085625 0.804620 -2.125595 4.426260 2.221525 12.918411 4.445600 0.208300 6.264000 -7.371419 4.012287 -2.533158 -90.390196 9.879550 7.265113 11.273835 -21.019357 -2.342518 -0.760477 -3.733221 12.588904 11.674732 29.562729 6.491100 -7.125000 0.000000 0.000000 -25.153800 62.229800 -10.906200 5.935599 -2.622869 -2.345553 77.374358 -6.807234 27.403911 -13.040307 19.906278 -3.030403 1.195207 -0.566513 8.708675 -15.859521 10.963467 -3.451500 7.125000 0.000000 0.000000 7.016900 -18.233200 4.503000 
5.326836 106.375122 -210.841710 0.971552 -1.477662 7.435337 1.081978 2.017183 1.416304 -21.028440 -9.776103 -13.494268 1.411720 8.975567 27.567595 -0.712432 5.285511 -7.838079 0.008400 0.591200 1.624600 -3.274128 -2.800045 1.056896 24.221293 11.310335 -12.448721 -2.531496 -9.448332 29.451840 0.985048 -7.394410 -10.644770 -0.004600 -0.437900 1.203100 -2.814797 -1.961930 0.187911 2.076809 -3.316901 -3.070980 7.463791 -0.867215 -5.073840 -11.367915 -0.801103 -4.255451 4.431852 0.034797 13.041378 4.091400 -0.708900 6.991900 -7.507039 3.792115 -2.385301 -88.053235 7.111137 10.588725 10.904567 -20.366584 -2.200762 -0.853950 -3.559273 12.012819 12.708912 27.642289 6.775700 -7.125000 0.000000 0.000000 -22.022200 60.642000 -8.640300 5.904101 -2.599874 -2.285778 79.750549 -5.149044 23.248588 -13.121606 19.922739 -3.037175 1.164167 -0.700853 9.025424 -15.813872 12.135735 -3.829200 7.125000 0.000000 0.000000 7.060300 -16.893300 4.740400 
5.072568 106.376346 -210.819150 1.010996 -1.475118 7.742031 1.143097 1.998885 1.353368 -20.935409 -9.427464 -13.883008 1.390203 8.957632 27.472022 -0.652926 5.031620 -7.648171 0.004500 0.433800 1.192100 -3.226281 -2.765913 1.024755 24.241418 11.457361 -12.770003 -2.546461 -9.503981 29.567258 0.999861 -7.494055 -10.753189 -0.004000 -0.408800 1.123200 -2.193019 -1.057053 0.179940 1.578244 -2.016593 -2.720303 5.847310 -0.370859 -4.241712 -10.440461 -1.736939 -6.204926 4.751685 -1.229520 13.054880 4.004800 -1.198400 7.568700 -7.580526 3.625515 -2.351603 -86.475458 5.441538 13.442487 10.925534 -20.347559 -2.182843 -0.786472 -3.647424 12.060351 12.075182 28.826439 6.615100 -7.125000 0.000000 0.000000 -23.879600 61.613900 -9.969900 5.896937 -2.523460 -2.224786 81.235197 -3.657790 19.807031 -13.032962 19.695848 -2.967113 1.128704 -0.834964 10.039391 -15.871407 13.015846 -4.139100 7.125000 0.000000 0.000000 7.034100 -15.862300 4.881100 
4.856712 106.366590 -210.564270 1.150631 -1.276275 7.799940 0.984434 1.986695 1.458357 -20.764265 -9.330611 -14.199989 1.415306 9.006560 27.603379 -0.660904 5.043187 -7.552263 0.001500 -0.252200 -0.692900 -3.368495 -2.828503 1.105847 24.408915 11.344647 -12.641929 -2.516163 -9.414942 29.372725 0.970300 -7.406300 -10.968298 -0.007400 -0.555600 1.526600 -4.299818 -3.188465 0.539666 2.933378 -5.151244 -3.455950 10.611096 -1.511794 -5.763838 -12.970592 0.684093 -3.023252 3.860904 2.172791 13.141761 4.169200 0.154800 6.530400 -7.311324 3.945469 -2.489104 -90.864784 9.251722 6.546963 11.559823 -21.496937 -2.490885 -0.826898 -3.705364 12.067740 12.614387 29.250530 7.025000 -7.125000 0.000000 0.000000 -23.730700 62.201100 -10.233900 6.012710 -2.632738 -2.317349 76.670078 -5.606373 27.828620 -12.904265 19.691411 -2.959719 1.214844 -0.568439 8.598004 -16.015271 10.910198 -3.472700 7.125000 0.000000 0.000000 6.894200 -18.275400 4.416600 
